<?xml version="1.0" encoding="utf-8"?>
<!-- Svg Vector Icons : http://www.onlinewebfonts.com/icon -->
<!DOCTYPE svg PUBLIC "-//W3C//DTD SVG 1.1//EN" "http://www.w3.org/Graphics/SVG/1.1/DTD/svg11.dtd">
<svg version="1.1" xmlns="http://www.w3.org/2000/svg" xmlns:xlink="http://www.w3.org/1999/xlink" x="0px" y="0px" viewBox="0 0 1000 1000" enable-background="new 0 0 1000 1000" xml:space="preserve">
<metadata> Svg Vector Icons : http://www.onlinewebfonts.com/icon </metadata>
<g><path d="M949,663.8c2.1-4.2,9-12.1,13.5-17c13.5-15.6,27.4-31.6,27.4-52.1c0-17.4-10.1-34-19.8-50c-3.8-6.2-9.7-16.3-11.8-21.5c2.1-3.5,6.6-9.7,9.7-13.5c10.1-13.5,20.8-27.4,21.9-44.1c2.4-43.4-45.1-110.7-80.9-125.3c-13.9-5.9-45.5-13.5-161.1-13.5c-33.7,0-65.3,0.7-85.4,1.4c-2.1-17.4-4.2-43.7-5.6-63.2c-1-15.3-2.4-30.9-3.8-45.1C646.6,147,605,81,567.1,54c-26.7-19.4-55.2-29.9-81.9-29.9c-45.5,0-74.6,28.5-76.4,55.9v1.4v1.4c0.7,17,2.1,30.9,3.8,44.4c3.8,34.7,8,70.8-6.6,166.6c-6.9,45.1-21.2,79.1-42,97.9c-14.9,13.5-28.8,16.3-35.8,17.4l0,0l-23.6-0.3c-0.7-14.6-12.8-26.7-27.8-26.7H36.4C21.1,382,10,395.2,10,410.4v515.1c0,15.3,11.1,29.2,26.4,29.2h240.6c13.5,0,25-10.4,27.4-23.3l206.2,32.3l1,0.7c3.8,0.3,97.9,11.5,185.4,11.5l0,0c53.8,0,93-4.5,119.1-12.5c33-10.1,81.6-54.8,94.8-86.4c4.9-12.1,4.5-26.7,3.8-41c-0.3-5.9-0.7-15.3,0-18.7c2.4-3.8,10.1-11.5,15.6-16.7c17.7-17.4,39.2-38.9,39.2-67.7c0-14.6-6.2-29.9-12.1-44.4C954.5,680.8,949.6,669,949,663.8z M65.5,437.9h184v461.7h-184V437.9z M922.9,573.9c3.5,5.9,9,14.9,11.1,20.1c-2.8,4.2-9,11.8-13.2,16.3c-12.5,14.2-25.7,29.2-27.1,47.9c-1.4,16.7,5.6,34,12.1,50.7c3.1,7.3,8,19.8,8,24c-0.7,5.9-15.6,20.8-22.9,27.8c-10.8,10.4-20.8,20.5-26.4,31.9c-6.6,13.5-6.2,29.5-5.6,45.1c0.3,5.9,0.7,14.9,0,18.1c-7.3,16.7-42.7,48.9-59.7,54.1C785.1,914.5,756,920,696.6,920l0,0c-80.9,0-170.4-10.1-178.4-11.1L305,875.2V465.3h26h3.1l3.1-0.7c0.3,0,0.7,0,1.4-0.3c66-12.5,108.3-68.4,122.2-161.8c15.6-103.4,11.1-143,6.6-181.2c-1.4-11.5-2.4-22.6-3.1-35.1c2.4-2.1,9-6.2,20.8-6.2c10.4,0,27.4,3.5,49.3,19.1c37.8,27.4,60.1,91.6,63.5,126.4c1.4,13.9,2.4,29.5,3.8,44.4c1.7,23.6,3.5,45.5,5.6,62.8c1,10.1,2.4,17.4,3.5,22.9c5.6,25.7,21.5,29.2,30.5,29.2h5.2h0.3c13.2-0.3,55.2-1.7,101.4-1.7c112.1,0,136.1,7.6,139.9,9c16.3,6.6,45.8,51.4,46.5,69.4c-1.7,3.5-7.3,10.8-10.4,15.3c-9.4,12.5-19.1,25.3-21.2,40.3C900.4,537.1,911.8,555.9,922.9,573.9z"/></g>
</svg>